<mxfile host="app.diagrams.net" modified="2024-03-11T22:46:47.442Z" agent="Mozilla/5.0 (Windows NT 10.0; Win64; x64) AppleWebKit/537.36 (KHTML, like Gecko) Chrome/121.0.0.0 Safari/537.36 OPR/107.0.0.0 (Edition std-1)" etag="SVr5tu_qVjMazio6-Xbf" version="24.0.4" type="github">
  <diagram name="Strona-1" id="r3digyjytwxBan-t6y29">
    <mxGraphModel dx="2220" dy="758" grid="1" gridSize="10" guides="1" tooltips="1" connect="1" arrows="1" fold="1" page="1" pageScale="1" pageWidth="827" pageHeight="1169" math="0" shadow="0">
      <root>
        <mxCell id="0" />
        <mxCell id="1" parent="0" />
        <mxCell id="HK8GiBR4hAxQkNfhSsfB-2" value="Dodaj lot" style="ellipse;whiteSpace=wrap;html=1;" parent="1" vertex="1">
          <mxGeometry x="406" y="120" width="120" height="80" as="geometry" />
        </mxCell>
        <mxCell id="HK8GiBR4hAxQkNfhSsfB-18" style="edgeStyle=orthogonalEdgeStyle;rounded=0;orthogonalLoop=1;jettySize=auto;html=1;entryX=0;entryY=0.5;entryDx=0;entryDy=0;strokeColor=none;" parent="1" source="HK8GiBR4hAxQkNfhSsfB-3" target="HK8GiBR4hAxQkNfhSsfB-11" edge="1">
          <mxGeometry relative="1" as="geometry" />
        </mxCell>
        <mxCell id="HK8GiBR4hAxQkNfhSsfB-19" style="edgeStyle=orthogonalEdgeStyle;rounded=0;orthogonalLoop=1;jettySize=auto;html=1;curved=0;endArrow=none;endFill=0;" parent="1" source="HK8GiBR4hAxQkNfhSsfB-3" target="HK8GiBR4hAxQkNfhSsfB-11" edge="1">
          <mxGeometry relative="1" as="geometry" />
        </mxCell>
        <mxCell id="HK8GiBR4hAxQkNfhSsfB-27" style="edgeStyle=orthogonalEdgeStyle;rounded=0;orthogonalLoop=1;jettySize=auto;html=1;entryX=0;entryY=0.5;entryDx=0;entryDy=0;endArrow=none;endFill=0;" parent="1" source="HK8GiBR4hAxQkNfhSsfB-3" target="HK8GiBR4hAxQkNfhSsfB-13" edge="1">
          <mxGeometry relative="1" as="geometry" />
        </mxCell>
        <mxCell id="HK8GiBR4hAxQkNfhSsfB-29" style="edgeStyle=orthogonalEdgeStyle;rounded=0;orthogonalLoop=1;jettySize=auto;html=1;entryX=0;entryY=0.5;entryDx=0;entryDy=0;endArrow=none;endFill=0;" parent="1" source="HK8GiBR4hAxQkNfhSsfB-3" target="HK8GiBR4hAxQkNfhSsfB-12" edge="1">
          <mxGeometry relative="1" as="geometry" />
        </mxCell>
        <mxCell id="HK8GiBR4hAxQkNfhSsfB-30" style="edgeStyle=orthogonalEdgeStyle;rounded=0;orthogonalLoop=1;jettySize=auto;html=1;entryX=0;entryY=0.5;entryDx=0;entryDy=0;endArrow=none;endFill=0;" parent="1" source="HK8GiBR4hAxQkNfhSsfB-3" target="HK8GiBR4hAxQkNfhSsfB-20" edge="1">
          <mxGeometry relative="1" as="geometry" />
        </mxCell>
        <mxCell id="HK8GiBR4hAxQkNfhSsfB-38" style="edgeStyle=orthogonalEdgeStyle;rounded=0;orthogonalLoop=1;jettySize=auto;html=1;entryX=0.5;entryY=0;entryDx=0;entryDy=0;endArrow=none;endFill=0;" parent="1" source="HK8GiBR4hAxQkNfhSsfB-3" target="HK8GiBR4hAxQkNfhSsfB-37" edge="1">
          <mxGeometry relative="1" as="geometry" />
        </mxCell>
        <mxCell id="HK8GiBR4hAxQkNfhSsfB-40" style="edgeStyle=orthogonalEdgeStyle;rounded=0;orthogonalLoop=1;jettySize=auto;html=1;endArrow=none;endFill=0;" parent="1" source="HK8GiBR4hAxQkNfhSsfB-3" target="HK8GiBR4hAxQkNfhSsfB-39" edge="1">
          <mxGeometry relative="1" as="geometry" />
        </mxCell>
        <mxCell id="MtboSmwLga4VbYozahNN-2" style="edgeStyle=orthogonalEdgeStyle;rounded=0;orthogonalLoop=1;jettySize=auto;html=1;entryX=0;entryY=0.5;entryDx=0;entryDy=0;endArrow=none;endFill=0;" edge="1" parent="1" source="HK8GiBR4hAxQkNfhSsfB-3" target="MtboSmwLga4VbYozahNN-1">
          <mxGeometry relative="1" as="geometry" />
        </mxCell>
        <mxCell id="HK8GiBR4hAxQkNfhSsfB-3" value="Użytkownik" style="shape=umlActor;verticalLabelPosition=bottom;verticalAlign=top;html=1;outlineConnect=0;" parent="1" vertex="1">
          <mxGeometry x="-130" y="350" width="30" height="60" as="geometry" />
        </mxCell>
        <mxCell id="HK8GiBR4hAxQkNfhSsfB-4" value="Dyrekcja" style="shape=umlActor;verticalLabelPosition=bottom;verticalAlign=top;html=1;outlineConnect=0;" parent="1" vertex="1">
          <mxGeometry x="629" y="440" width="30" height="60" as="geometry" />
        </mxCell>
        <mxCell id="HK8GiBR4hAxQkNfhSsfB-7" style="edgeStyle=orthogonalEdgeStyle;rounded=0;orthogonalLoop=1;jettySize=auto;html=1;endArrow=none;endFill=0;" parent="1" source="HK8GiBR4hAxQkNfhSsfB-5" target="HK8GiBR4hAxQkNfhSsfB-4" edge="1">
          <mxGeometry relative="1" as="geometry" />
        </mxCell>
        <mxCell id="HK8GiBR4hAxQkNfhSsfB-5" value="Statystyki" style="ellipse;whiteSpace=wrap;html=1;" parent="1" vertex="1">
          <mxGeometry x="406" y="430" width="120" height="80" as="geometry" />
        </mxCell>
        <mxCell id="HK8GiBR4hAxQkNfhSsfB-8" value="Usuń lot" style="ellipse;whiteSpace=wrap;html=1;" parent="1" vertex="1">
          <mxGeometry x="406" y="210" width="120" height="80" as="geometry" />
        </mxCell>
        <mxCell id="HK8GiBR4hAxQkNfhSsfB-9" value="Modyfikuj lot" style="ellipse;whiteSpace=wrap;html=1;" parent="1" vertex="1">
          <mxGeometry x="409" y="30" width="120" height="80" as="geometry" />
        </mxCell>
        <mxCell id="HK8GiBR4hAxQkNfhSsfB-34" style="edgeStyle=orthogonalEdgeStyle;rounded=0;orthogonalLoop=1;jettySize=auto;html=1;entryX=1;entryY=0.5;entryDx=0;entryDy=0;endArrow=none;endFill=0;" parent="1" source="HK8GiBR4hAxQkNfhSsfB-10" target="HK8GiBR4hAxQkNfhSsfB-9" edge="1">
          <mxGeometry relative="1" as="geometry" />
        </mxCell>
        <mxCell id="HK8GiBR4hAxQkNfhSsfB-35" style="edgeStyle=orthogonalEdgeStyle;rounded=0;orthogonalLoop=1;jettySize=auto;html=1;entryX=1;entryY=0.5;entryDx=0;entryDy=0;endArrow=none;endFill=0;" parent="1" source="HK8GiBR4hAxQkNfhSsfB-10" target="HK8GiBR4hAxQkNfhSsfB-2" edge="1">
          <mxGeometry relative="1" as="geometry" />
        </mxCell>
        <mxCell id="HK8GiBR4hAxQkNfhSsfB-36" style="edgeStyle=orthogonalEdgeStyle;rounded=0;orthogonalLoop=1;jettySize=auto;html=1;entryX=1;entryY=0.5;entryDx=0;entryDy=0;endArrow=none;endFill=0;" parent="1" source="HK8GiBR4hAxQkNfhSsfB-10" target="HK8GiBR4hAxQkNfhSsfB-8" edge="1">
          <mxGeometry relative="1" as="geometry" />
        </mxCell>
        <mxCell id="MtboSmwLga4VbYozahNN-5" style="edgeStyle=orthogonalEdgeStyle;rounded=0;orthogonalLoop=1;jettySize=auto;html=1;entryX=0;entryY=0.5;entryDx=0;entryDy=0;endArrow=none;endFill=0;" edge="1" parent="1" source="HK8GiBR4hAxQkNfhSsfB-10" target="HK8GiBR4hAxQkNfhSsfB-21">
          <mxGeometry relative="1" as="geometry">
            <Array as="points">
              <mxPoint x="644" y="350" />
              <mxPoint x="310" y="350" />
            </Array>
          </mxGeometry>
        </mxCell>
        <mxCell id="HK8GiBR4hAxQkNfhSsfB-10" value="Pracownik" style="shape=umlActor;verticalLabelPosition=bottom;verticalAlign=top;html=1;outlineConnect=0;" parent="1" vertex="1">
          <mxGeometry x="629" y="220" width="30" height="60" as="geometry" />
        </mxCell>
        <mxCell id="HK8GiBR4hAxQkNfhSsfB-11" value="Rezerwuj lot" style="ellipse;whiteSpace=wrap;html=1;" parent="1" vertex="1">
          <mxGeometry y="410" width="120" height="80" as="geometry" />
        </mxCell>
        <mxCell id="HK8GiBR4hAxQkNfhSsfB-12" value="Anuluj rezerwacje" style="ellipse;whiteSpace=wrap;html=1;" parent="1" vertex="1">
          <mxGeometry y="510" width="120" height="80" as="geometry" />
        </mxCell>
        <mxCell id="HK8GiBR4hAxQkNfhSsfB-15" value="&amp;lt;&amp;lt;include&amp;gt;&amp;gt;" style="edgeStyle=orthogonalEdgeStyle;rounded=0;orthogonalLoop=1;jettySize=auto;html=1;entryX=0.5;entryY=1;entryDx=0;entryDy=0;dashed=1;startArrow=classic;startFill=1;" parent="1" source="HK8GiBR4hAxQkNfhSsfB-13" target="HK8GiBR4hAxQkNfhSsfB-14" edge="1">
          <mxGeometry relative="1" as="geometry">
            <mxPoint as="offset" />
          </mxGeometry>
        </mxCell>
        <mxCell id="HK8GiBR4hAxQkNfhSsfB-32" value="&amp;lt;&amp;lt;include&amp;gt;&amp;gt;" style="edgeStyle=orthogonalEdgeStyle;rounded=0;orthogonalLoop=1;jettySize=auto;html=1;startArrow=classic;startFill=1;dashed=1;" parent="1" source="HK8GiBR4hAxQkNfhSsfB-13" target="HK8GiBR4hAxQkNfhSsfB-21" edge="1">
          <mxGeometry relative="1" as="geometry" />
        </mxCell>
        <mxCell id="HK8GiBR4hAxQkNfhSsfB-13" value="Kup bilet" style="ellipse;whiteSpace=wrap;html=1;" parent="1" vertex="1">
          <mxGeometry y="210" width="120" height="80" as="geometry" />
        </mxCell>
        <mxCell id="HK8GiBR4hAxQkNfhSsfB-14" value="Zapłać" style="ellipse;whiteSpace=wrap;html=1;" parent="1" vertex="1">
          <mxGeometry y="30" width="120" height="80" as="geometry" />
        </mxCell>
        <mxCell id="HK8GiBR4hAxQkNfhSsfB-20" value="Zaplanuj podróż" style="ellipse;whiteSpace=wrap;html=1;" parent="1" vertex="1">
          <mxGeometry y="610" width="120" height="80" as="geometry" />
        </mxCell>
        <mxCell id="MtboSmwLga4VbYozahNN-6" value="&amp;lt;&amp;lt;include&amp;gt;&amp;gt;" style="edgeStyle=orthogonalEdgeStyle;rounded=0;orthogonalLoop=1;jettySize=auto;html=1;entryX=0;entryY=0.5;entryDx=0;entryDy=0;endArrow=none;endFill=0;dashed=1;" edge="1" parent="1" source="HK8GiBR4hAxQkNfhSsfB-21" target="HK8GiBR4hAxQkNfhSsfB-9">
          <mxGeometry relative="1" as="geometry" />
        </mxCell>
        <mxCell id="MtboSmwLga4VbYozahNN-7" value="&amp;lt;&amp;lt;include&amp;gt;&amp;gt;" style="edgeStyle=orthogonalEdgeStyle;rounded=0;orthogonalLoop=1;jettySize=auto;html=1;entryX=0;entryY=0.5;entryDx=0;entryDy=0;dashed=1;endArrow=none;endFill=0;" edge="1" parent="1" source="HK8GiBR4hAxQkNfhSsfB-21" target="HK8GiBR4hAxQkNfhSsfB-2">
          <mxGeometry relative="1" as="geometry" />
        </mxCell>
        <mxCell id="MtboSmwLga4VbYozahNN-8" value="&amp;lt;&amp;lt;include&amp;gt;&amp;gt;" style="edgeStyle=orthogonalEdgeStyle;rounded=0;orthogonalLoop=1;jettySize=auto;html=1;endArrow=none;endFill=0;dashed=1;" edge="1" parent="1" source="HK8GiBR4hAxQkNfhSsfB-21" target="HK8GiBR4hAxQkNfhSsfB-8">
          <mxGeometry relative="1" as="geometry" />
        </mxCell>
        <mxCell id="HK8GiBR4hAxQkNfhSsfB-21" value="Zaloguj się" style="ellipse;whiteSpace=wrap;html=1;direction=west;" parent="1" vertex="1">
          <mxGeometry x="190" y="210" width="120" height="80" as="geometry" />
        </mxCell>
        <mxCell id="HK8GiBR4hAxQkNfhSsfB-23" value="&amp;lt;&amp;lt;extend&amp;gt;&amp;gt;" style="edgeStyle=orthogonalEdgeStyle;rounded=0;orthogonalLoop=1;jettySize=auto;html=1;dashed=1;" parent="1" source="HK8GiBR4hAxQkNfhSsfB-22" target="HK8GiBR4hAxQkNfhSsfB-21" edge="1">
          <mxGeometry relative="1" as="geometry">
            <mxPoint as="offset" />
          </mxGeometry>
        </mxCell>
        <mxCell id="HK8GiBR4hAxQkNfhSsfB-22" value="Załóż konto" style="ellipse;whiteSpace=wrap;html=1;" parent="1" vertex="1">
          <mxGeometry x="190" y="30" width="120" height="80" as="geometry" />
        </mxCell>
        <mxCell id="HK8GiBR4hAxQkNfhSsfB-37" value="Wyszukaj połączenie" style="ellipse;whiteSpace=wrap;html=1;" parent="1" vertex="1">
          <mxGeometry x="-175" y="620" width="120" height="80" as="geometry" />
        </mxCell>
        <mxCell id="HK8GiBR4hAxQkNfhSsfB-39" value="Sprawdź rozkład lotów" style="ellipse;whiteSpace=wrap;html=1;" parent="1" vertex="1">
          <mxGeometry x="-175" y="180" width="120" height="80" as="geometry" />
        </mxCell>
        <mxCell id="MtboSmwLga4VbYozahNN-4" value="&amp;lt;&amp;lt;include&amp;gt;&amp;gt;" style="edgeStyle=orthogonalEdgeStyle;rounded=0;orthogonalLoop=1;jettySize=auto;html=1;entryX=0.5;entryY=0;entryDx=0;entryDy=0;startArrow=classic;startFill=1;dashed=1;" edge="1" parent="1" source="MtboSmwLga4VbYozahNN-1" target="HK8GiBR4hAxQkNfhSsfB-21">
          <mxGeometry relative="1" as="geometry" />
        </mxCell>
        <mxCell id="MtboSmwLga4VbYozahNN-1" value="Zgłoś problem" style="ellipse;whiteSpace=wrap;html=1;" vertex="1" parent="1">
          <mxGeometry y="310" width="120" height="80" as="geometry" />
        </mxCell>
      </root>
    </mxGraphModel>
  </diagram>
</mxfile>
